<!DOCTYPE svg PUBLIC "-//W3C//DTD SVG 1.1//EN" "http://www.w3.org/Graphics/SVG/1.1/DTD/svg11.dtd">
<!-- Uploaded to: SVG Repo, www.svgrepo.com, Transformed by: SVG Repo Mixer Tools -->
<svg width="800px" height="800px" viewBox="0 0 24.00 24.00" fill="none" xmlns="http://www.w3.org/2000/svg" stroke="#d11010">
<g id="SVGRepo_bgCarrier" stroke-width="0"/>
<g id="SVGRepo_tracerCarrier" stroke-linecap="round" stroke-linejoin="round" stroke="#CCCCCC" stroke-width="0.048"> <circle cx="12" cy="17" r="1" fill="#d11010"/> <path d="M12 10L12 14" stroke="#d11010" stroke-width="1.9200000000000004" stroke-linecap="round" stroke-linejoin="round"/> <path d="M3.44722 18.1056L10.2111 4.57771C10.9482 3.10361 13.0518 3.10362 13.7889 4.57771L20.5528 18.1056C21.2177 19.4354 20.2507 21 18.7639 21H5.23607C3.7493 21 2.78231 19.4354 3.44722 18.1056Z" stroke="#d11010" stroke-width="1.9200000000000004" stroke-linecap="round" stroke-linejoin="round"/> </g>
<g id="SVGRepo_iconCarrier"> <circle cx="12" cy="17" r="1" fill="#d11010"/> <path d="M12 10L12 14" stroke="#d11010" stroke-width="1.9200000000000004" stroke-linecap="round" stroke-linejoin="round"/> <path d="M3.44722 18.1056L10.2111 4.57771C10.9482 3.10361 13.0518 3.10362 13.7889 4.57771L20.5528 18.1056C21.2177 19.4354 20.2507 21 18.7639 21H5.23607C3.7493 21 2.78231 19.4354 3.44722 18.1056Z" stroke="#d11010" stroke-width="1.9200000000000004" stroke-linecap="round" stroke-linejoin="round"/> </g>
</svg>